<?xml version="1.0" encoding="UTF-8" standalone="no"?>
<svg xmlns="http://www.w3.org/2000/svg" width="300" height="300" viewBox="0 0 300 300">
  <g id="vault-boy" fill="#11ff00">
    <!-- Head -->
    <circle cx="150" cy="120" r="70" fill="#ffff99"/>
    <!-- Hair -->
    <path d="M150 50 Q130 52 110 65 Q100 75 95 85 Q90 95 88 110 Q80 70 110 55 Q130 40 150 40 Q170 40 190 55 Q220 70 212 110 Q210 95 205 85 Q200 75 190 65 Q170 52 150 50Z" fill="#ffff00"/>
    <!-- Face -->
    <circle cx="125" cy="110" r="10" fill="#11ff00"/> <!-- Left eye -->
    <circle cx="175" cy="110" r="10" fill="#11ff00"/> <!-- Right eye -->
    <path d="M130 140 Q150 160 170 140" fill="none" stroke="#11ff00" stroke-width="5" stroke-linecap="round"/> <!-- Smile -->
    <!-- Vault suit -->
    <path d="M100 190 Q80 230 90 260 Q100 270 110 260 Q120 250 120 240 L120 220 L180 220 L180 240 Q180 250 190 260 Q200 270 210 260 Q220 230 200 190 Q185 175 150 175 Q115 175 100 190Z" fill="#11ff00"/>
    <!-- Collar -->
    <path d="M100 190 Q150 170 200 190 Q180 200 150 200 Q120 200 100 190Z" fill="#265ea7"/>
    <path d="M135 200 L135 210 L165 210 L165 200 Z" fill="#265ea7"/>
    <!-- Number -->
    <text x="150" y="208" font-family="Arial" font-size="20" fill="#ffff00" text-anchor="middle">101</text>
    <!-- Arm with thumbs up -->
    <path d="M180 220 Q200 225 210 235 Q220 250 215 260 Q210 270 205 265 Q200 275 190 270 Q180 265 178 260 Q178 255 180 250 Q182 245 180 240 Z" fill="#ffff99"/>
    <!-- Thumb -->
    <path d="M178 260 Q176 250 180 245 Q185 240 190 245 Q195 250 195 255 Q195 260 192 262 Q190 265 185 263 Q180 262 178 260Z" fill="#ffff99"/>
    <!-- Wrist detail -->
    <path d="M180 235 Q185 236 190 235 Q195 233 195 235" fill="none" stroke="#11ff00" stroke-width="2"/>
  </g>
</svg>